<?xml version="1.0" encoding="UTF-8" standalone="no"?><!DOCTYPE svg PUBLIC "-//W3C//DTD SVG 1.1//EN" "http://www.w3.org/Graphics/SVG/1.1/DTD/svg11.dtd"><svg width="100%" height="100%" viewBox="0 0 100 100" version="1.1" xmlns="http://www.w3.org/2000/svg" xmlns:xlink="http://www.w3.org/1999/xlink" xml:space="preserve" xmlns:serif="http://www.serif.com/" style="fill-rule:evenodd;clip-rule:evenodd;stroke-linejoin:round;stroke-miterlimit:2;"><g><path d="M68.682,12.941c-0.429,0.019 -0.774,0.374 -0.78,0.804c-0,1.792 -0.437,3.403 -1.084,4.506c-0.647,1.102 -1.432,1.635 -2.184,1.635c-0.44,0.01 -0.796,0.375 -0.796,0.815c-0,0.441 0.356,0.806 0.796,0.816c0.752,0 1.537,0.533 2.184,1.636c0.647,1.102 1.084,2.714 1.084,4.506c0.001,0.446 0.369,0.813 0.816,0.813c0.446,-0 0.814,-0.367 0.816,-0.813c0,-1.792 0.437,-3.404 1.084,-4.506c0.647,-1.103 1.432,-1.636 2.184,-1.636c0.44,-0.01 0.796,-0.375 0.796,-0.816c-0,-0.44 -0.356,-0.805 -0.796,-0.815c-0.752,-0 -1.537,-0.532 -2.184,-1.635c-0.647,-1.102 -1.084,-2.714 -1.084,-4.506c-0.006,-0.443 -0.373,-0.805 -0.816,-0.805c-0.012,0 -0.024,0 -0.036,0.001Zm0.034,5.123c0.148,0.354 0.309,0.698 0.493,1.013c0.381,0.65 0.862,1.201 1.406,1.625c-0.544,0.424 -1.025,0.974 -1.406,1.624c-0.184,0.314 -0.344,0.658 -0.493,1.014c-0.148,-0.355 -0.308,-0.7 -0.492,-1.014c-0.381,-0.649 -0.862,-1.2 -1.405,-1.624c0.543,-0.424 1.024,-0.975 1.405,-1.625c0.184,-0.313 0.344,-0.657 0.492,-1.013Zm7.972,6.921c-0.545,0.023 -0.983,0.475 -0.991,1.021c-0,2.633 -0.643,5.004 -1.609,6.64c-0.965,1.635 -2.16,2.459 -3.339,2.459c-0.56,0.012 -1.014,0.476 -1.014,1.036c0,0.56 0.454,1.024 1.014,1.036c1.178,-0 2.374,0.824 3.339,2.459c0.966,1.636 1.609,4.007 1.609,6.64c0.003,0.567 0.47,1.031 1.036,1.031c0.567,-0 1.033,-0.464 1.036,-1.031c0,-2.633 0.643,-5.004 1.609,-6.64c0.965,-1.635 2.161,-2.459 3.339,-2.459c0.56,-0.012 1.014,-0.476 1.014,-1.036c-0,-0.56 -0.454,-1.024 -1.014,-1.036c-1.178,-0 -2.374,-0.825 -3.339,-2.459c-0.966,-1.636 -1.609,-4.007 -1.609,-6.64c-0.007,-0.563 -0.473,-1.022 -1.036,-1.022c-0.015,-0 -0.03,0 -0.045,0.001l0,-0Zm-15.829,1.257c-1.59,-0 -2.901,1.311 -2.901,2.901c0,1.59 1.311,2.9 2.901,2.9c1.59,0 2.901,-1.31 2.901,-2.9c-0,-1.59 -1.311,-2.901 -2.901,-2.901Zm-8.433,2.041c-0.546,0.024 -0.984,0.475 -0.992,1.021c0,2.275 -0.554,4.321 -1.376,5.721c-0.821,1.4 -1.818,2.076 -2.773,2.076c-0.561,0.01 -1.017,0.474 -1.017,1.036c-0,0.561 0.456,1.026 1.017,1.036c0.955,-0 1.952,0.675 2.773,2.076c0.822,1.4 1.376,3.446 1.376,5.721c0.003,0.567 0.47,1.032 1.037,1.032c0.566,-0 1.033,-0.465 1.036,-1.032c-0,-2.275 0.554,-4.321 1.376,-5.721c0.822,-1.4 1.818,-2.076 2.773,-2.076c0.562,-0.01 1.018,-0.475 1.018,-1.036c-0,-0.562 -0.456,-1.026 -1.018,-1.036c-0.955,-0 -1.951,-0.676 -2.773,-2.076c-0.822,-1.4 -1.376,-3.446 -1.376,-5.721c-0.008,-0.563 -0.473,-1.022 -1.036,-1.022c-0.015,-0 -0.03,0 -0.046,0.001l0.001,-0Zm8.433,0.026c0.47,0 0.829,0.359 0.829,0.829c-0,0.47 -0.359,0.829 -0.829,0.829c-0.47,-0 -0.829,-0.359 -0.829,-0.829c0,-0.469 0.359,-0.829 0.829,-0.829Zm15.874,3.562c0.249,0.649 0.531,1.266 0.86,1.823c0.584,0.989 1.314,1.83 2.15,2.442c-0.836,0.612 -1.566,1.453 -2.15,2.442c-0.329,0.558 -0.611,1.174 -0.86,1.824c-0.25,-0.65 -0.531,-1.267 -0.86,-1.824c-0.584,-0.99 -1.314,-1.83 -2.15,-2.442c0.836,-0.612 1.566,-1.453 2.15,-2.442c0.329,-0.558 0.61,-1.174 0.86,-1.823Zm-12.068,2.517c-0.545,0.024 -0.983,0.475 -0.991,1.021c0,4.244 -1.044,8.073 -2.658,10.765c-1.614,2.692 -3.707,4.176 -5.885,4.176c-0.565,0.006 -1.026,0.472 -1.026,1.036c-0,0.565 0.461,1.031 1.026,1.036c1.85,0 3.638,1.071 5.124,3.043l-9.925,-3.335c-0.099,-0.034 -0.201,-0.052 -0.305,-0.055c-0.121,-0.003 -0.241,0.016 -0.355,0.055l-48.964,16.456c-0.421,0.141 -0.706,0.538 -0.706,0.982c0,0.444 0.285,0.84 0.706,0.982l48.964,16.456c0.214,0.072 0.446,0.072 0.66,-0l48.964,-16.456c0.421,-0.142 0.706,-0.538 0.706,-0.982c-0,-0.444 -0.285,-0.841 -0.706,-0.982l-24.482,-8.228l-7.129,-2.399c0.225,-0.479 0.467,-0.934 0.722,-1.36c1.614,-2.692 3.707,-4.177 5.885,-4.177c0.565,-0.004 1.028,-0.47 1.028,-1.036c0,-0.565 -0.463,-1.032 -1.028,-1.036c-2.178,-0 -4.271,-1.484 -5.885,-4.176c-1.614,-2.692 -2.659,-6.521 -2.659,-10.765c-0.008,-0.563 -0.473,-1.022 -1.036,-1.022c-0.015,-0 -0.03,0 -0.045,0.001l0,-0Zm-12.194,0.395c0.188,0.452 0.391,0.888 0.625,1.287c0.484,0.825 1.094,1.525 1.785,2.063c-0.691,0.539 -1.301,1.238 -1.785,2.063c-0.234,0.399 -0.437,0.835 -0.625,1.287c-0.189,-0.452 -0.391,-0.888 -0.626,-1.287c-0.484,-0.825 -1.094,-1.525 -1.784,-2.063c0.69,-0.539 1.3,-1.238 1.784,-2.063c0.234,-0.399 0.437,-0.835 0.626,-1.287Zm12.239,7.88c0.491,1.68 1.118,3.243 1.918,4.576c1.077,1.798 2.446,3.241 4.01,4.148c-1.564,0.907 -2.933,2.349 -4.01,4.146c-0.8,1.333 -1.427,2.897 -1.918,4.576c-0.491,-1.679 -1.117,-3.242 -1.917,-4.576c-1.077,-1.797 -2.447,-3.239 -4.011,-4.146c1.564,-0.908 2.934,-2.35 4.011,-4.148c0.8,-1.333 1.426,-2.896 1.917,-4.576Zm16.765,7.594c-1.59,-0 -2.901,1.311 -2.901,2.901c0,1.589 1.311,2.901 2.901,2.901c1.59,-0 2.901,-1.311 2.901,-2.901c0,-1.59 -1.311,-2.901 -2.901,-2.901Zm0,2.071c0.47,0 0.829,0.359 0.829,0.829c0,0.47 -0.359,0.829 -0.829,0.829c-0.47,-0 -0.829,-0.359 -0.829,-0.829c0,-0.469 0.359,-0.829 0.829,-0.829Zm-31.475,1.877l11.841,3.98c0.758,1.681 1.32,3.661 1.611,5.823l-13.53,4.484l-21.366,-7.081l21.444,-7.206Zm4.222,3.377c-1.589,0 -2.9,1.311 -2.9,2.902c0,1.589 1.311,2.9 2.9,2.9c1.59,0 2.901,-1.31 2.901,-2.9c0,-1.59 -1.311,-2.902 -2.901,-2.902Zm0,2.073c0.47,-0 0.83,0.359 0.83,0.829c-0,0.469 -0.36,0.828 -0.83,0.828c-0.47,0 -0.828,-0.359 -0.828,-0.828c-0,-0.47 0.358,-0.829 0.828,-0.829Zm12.693,0.232l4.452,1.498l-5.264,1.744c0.198,-1.145 0.473,-2.232 0.812,-3.242l0,-0Zm7.717,2.596l21.08,7.084l-21.123,7.099c-0.009,-0.004 -0.018,-0.007 -0.027,-0.011l-21.345,-7.073l10.429,-3.457c0.019,0.408 0.03,0.821 0.03,1.238c0.011,0.561 0.475,1.017 1.036,1.017c0.561,-0 1.025,-0.456 1.036,-1.017c-0,-0.664 0.026,-1.318 0.074,-1.959l8.74,-2.896c0.024,-0.008 0.047,-0.017 0.07,-0.026l-0,0.001Zm-49.346,0.026l21.342,7.073l-21.295,7.057l-21.045,-7.073l20.998,-7.057Zm24.636,8.164l21.397,7.091l-21.319,7.165l-21.397,-7.191l21.319,-7.065Z" style="fill-rule:nonzero;"/></g></svg>