<?xml version="1.0" encoding="UTF-8" standalone="no"?><!DOCTYPE svg PUBLIC "-//W3C//DTD SVG 1.1//EN" "http://www.w3.org/Graphics/SVG/1.1/DTD/svg11.dtd"><svg width="100%" height="100%" viewBox="0 0 100 100" version="1.1" xmlns="http://www.w3.org/2000/svg" xmlns:xlink="http://www.w3.org/1999/xlink" xml:space="preserve" xmlns:serif="http://www.serif.com/" style="fill-rule:evenodd;clip-rule:evenodd;stroke-linejoin:round;stroke-miterlimit:2;"><g><path d="M16,21c-4.439,0 -8,3.733 -8,8.219l0,41.531c0,4.485 3.562,8.25 8,8.25l68,0c4.439,0 8,-3.765 8,-8.25l0,-41.531c0,-4.486 -3.561,-8.219 -8,-8.219l-68,0Zm0,4l68,0c0.587,0 1.154,0.143 1.656,0.375l-33.062,30.594c-1.528,1.413 -3.564,1.413 -5.094,-0l-33.125,-30.594c0.495,-0.225 1.048,-0.375 1.625,-0.375Zm-3.937,3.688l23.468,21.687l-23.031,22.406c-0.304,-0.6 -0.5,-1.28 -0.5,-2.031l-0,-41.531c-0,-0.184 0.043,-0.355 0.063,-0.532l-0,0Zm75.875,0.031c0.018,0.167 0.062,0.327 0.062,0.5l-0,41.532c-0,0.735 -0.177,1.408 -0.469,2l-22.969,-22.406l23.375,-21.626l0.001,0Zm-26.282,24.313l22.469,21.969l-68.125,-0c-0.032,-0 -0.062,0 -0.094,-0l22.562,-21.938l6.313,5.844c2.967,2.741 7.564,2.745 10.531,-0l6.344,-5.875l0,-0Z" style="fill-rule:nonzero;"/></g></svg>