<?xml version="1.0" encoding="UTF-8" standalone="no"?><!DOCTYPE svg PUBLIC "-//W3C//DTD SVG 1.1//EN" "http://www.w3.org/Graphics/SVG/1.1/DTD/svg11.dtd"><svg width="100%" height="100%" viewBox="0 0 100 100" version="1.1" xmlns="http://www.w3.org/2000/svg" xmlns:xlink="http://www.w3.org/1999/xlink" xml:space="preserve" xmlns:serif="http://www.serif.com/" style="fill-rule:evenodd;clip-rule:evenodd;stroke-linejoin:round;stroke-miterlimit:2;"><g><path d="M94.516,54.922l-21.079,-12.203l0,-24.203c0.006,-0.557 -0.286,-1.076 -0.765,-1.36l-21.875,-12.656c-0.483,-0.279 -1.08,-0.279 -1.563,-0l-21.875,12.578c-0.48,0.277 -0.778,0.79 -0.781,1.344l0,24.312l-20.969,12.078c-0.484,0.28 -0.783,0.8 -0.781,1.36l0,25.219c-0.002,0.559 0.297,1.079 0.781,1.359l21.875,12.656c0.237,0.141 0.507,0.216 0.782,0.219c0.275,-0.003 0.544,-0.078 0.781,-0.219l20.953,-12.125l20.953,12.156c0.243,0.138 0.518,0.208 0.797,0.204c0.268,-0.001 0.532,-0.071 0.766,-0.204l21.875,-12.5c0.48,-0.277 0.778,-0.789 0.781,-1.343l0.14,-25.344c-0.012,-0.552 -0.315,-1.058 -0.796,-1.328Zm-44.407,-47.266l20.313,11.75l-0,23.313l-20.422,11.687l-20.313,-11.75l0,-23.328l20.422,-11.672Zm-21.984,84.531l-20.313,-11.75l0,-23.437l20.313,-11.547l20.313,11.766l-0.001,23.437l-20.312,11.531Zm64.063,-11.578l-20.313,11.672l-20.313,-11.719l0.001,-23.437l20.312,-11.703l20.313,11.75l-0.001,23.437Z" style="fill-rule:nonzero;"/><path d="M50,43.75c6.857,0 12.5,-5.643 12.5,-12.5c0,-6.857 -5.643,-12.5 -12.5,-12.5c-6.857,0 -12.5,5.643 -12.5,12.5c0,6.857 5.643,12.5 12.5,12.5Zm0,-21.766c5.143,0 9.375,4.232 9.375,9.375c0,5.143 -4.232,9.375 -9.375,9.375c-5.143,0 -9.375,-4.232 -9.375,-9.375c0,-5.143 4.232,-9.375 9.375,-9.375Z" style="fill-rule:nonzero;"/><path d="M28.125,56.359c-6.857,0 -12.5,5.643 -12.5,12.5c0,6.858 5.643,12.5 12.5,12.5c6.857,0 12.5,-5.642 12.5,-12.5c0,-6.857 -5.643,-12.5 -12.5,-12.5Zm0,21.766c-5.143,-0 -9.375,-4.232 -9.375,-9.375c0,-5.143 4.232,-9.375 9.375,-9.375c5.143,-0 9.375,4.232 9.375,9.375c0,5.143 -4.232,9.375 -9.375,9.375Z" style="fill-rule:nonzero;"/></g></svg>