<?xml version="1.0" encoding="UTF-8" standalone="no"?><!DOCTYPE svg PUBLIC "-//W3C//DTD SVG 1.1//EN" "http://www.w3.org/Graphics/SVG/1.1/DTD/svg11.dtd"><svg width="100%" height="100%" viewBox="0 0 100 100" version="1.1" xmlns="http://www.w3.org/2000/svg" xmlns:xlink="http://www.w3.org/1999/xlink" xml:space="preserve" xmlns:serif="http://www.serif.com/" style="fill-rule:evenodd;clip-rule:evenodd;stroke-linejoin:round;stroke-miterlimit:2;"><path d="M57.05,76.11l-14.05,0c-0.023,0 -0.047,0.001 -0.07,0.001c-2.152,-0 -3.925,-1.769 -3.93,-3.921l0,-5.06c-0.021,-1.821 -0.81,-3.55 -2.17,-4.76c-4.094,-3.723 -6.431,-9.007 -6.43,-14.54c-0.005,-2.717 0.561,-5.405 1.66,-7.89c3.12,-7.111 10.183,-11.726 17.949,-11.726c10.752,0 19.6,8.848 19.6,19.6c-0,5.521 -2.333,10.793 -6.419,14.506c-1.368,1.227 -2.163,2.972 -2.19,4.81l-0,5.06c-0.005,2.152 -1.778,3.92 -3.93,3.92c-0.007,0 -0.013,0 -0.02,0Zm-7.05,-45.67c-6.886,-0.006 -13.153,4.084 -15.92,10.39c-2.993,6.847 -1.268,14.892 4.27,19.91c1.821,1.627 2.875,3.948 2.9,6.39l-0,5.06c0.005,0.94 0.78,1.71 1.72,1.71c0.01,0 0.02,0 0.03,0l14.1,0c0.936,-0.005 1.705,-0.774 1.71,-1.71l-0,-5.06c0.049,-2.472 1.139,-4.812 3,-6.44c3.617,-3.296 5.68,-7.968 5.68,-12.861c0,-8.876 -6.791,-16.401 -15.62,-17.309c-0.69,-0.05 -1.27,-0.08 -1.87,-0.08Z" style="fill-rule:nonzero;"/><rect x="48.9" y="9.83" width="2.2" height="10.77"/><path d="M31.958,14.368l-1.914,1.105l5.385,9.327l1.914,-1.105l-5.385,-9.327Z"/><path d="M17.648,27.873l-1.105,1.914l9.327,5.385l1.105,-1.914l-9.327,-5.385Z"/><rect x="12" y="46.73" width="10.77" height="2.2"/><path d="M25.867,60.494l-9.328,5.383l1.104,1.914l9.328,-5.383l-1.104,-1.914Z"/><path d="M74.143,60.491l-1.105,1.914l9.327,5.385l1.105,-1.914l-9.327,-5.385Z"/><rect x="77.23" y="46.73" width="10.77" height="2.2"/><path d="M82.358,27.885l-9.328,5.383l1.105,1.914l9.328,-5.383l-1.105,-1.914Z"/><path d="M68.045,14.357l-5.383,9.328l1.914,1.105l5.383,-9.328l-1.914,-1.105Z"/><path d="M55.1,80.77l-10.1,0c-1.815,-0.098 -3.255,-1.618 -3.255,-3.435c0,-1.817 1.44,-3.337 3.255,-3.435l10.1,0c1.815,0.098 3.255,1.618 3.255,3.435c-0,1.817 -1.44,3.337 -3.255,3.435Zm-10.1,-4.66c-0.037,-0.003 -0.074,-0.005 -0.111,-0.005c-0.675,0 -1.23,0.555 -1.23,1.23c0,0.675 0.555,1.23 1.23,1.23c0.037,0 0.074,-0.002 0.111,-0.005l10.1,-0c0.037,0.003 0.074,0.005 0.111,0.005c0.675,0 1.23,-0.555 1.23,-1.23c-0,-0.675 -0.555,-1.23 -1.23,-1.23c-0.037,0 -0.074,0.002 -0.111,0.005l-10.1,0Z" style="fill-rule:nonzero;"/><path d="M55.1,85.43l-10.1,0c-1.815,-0.098 -3.255,-1.618 -3.255,-3.435c0,-1.817 1.44,-3.337 3.255,-3.435l10.1,0c1.815,0.098 3.255,1.618 3.255,3.435c-0,1.817 -1.44,3.337 -3.255,3.435Zm-10.1,-4.66c-0.037,-0.003 -0.074,-0.005 -0.111,-0.005c-0.675,-0 -1.23,0.555 -1.23,1.23c0,0.675 0.555,1.23 1.23,1.23c0.037,-0 0.074,-0.002 0.111,-0.005l10.1,-0c0.037,0.003 0.074,0.005 0.111,0.005c0.675,-0 1.23,-0.555 1.23,-1.23c-0,-0.675 -0.555,-1.23 -1.23,-1.23c-0.037,-0 -0.074,0.002 -0.111,0.005l-10.1,-0Z" style="fill-rule:nonzero;"/><path d="M50.19,90.17l-0.38,0c-3.19,-0.022 -5.805,-2.65 -5.81,-5.84l2.2,0c-0,0.01 -0,0.02 -0,0.03c-0,1.986 1.625,3.624 3.61,3.64l0.38,0c1.993,0 3.635,-1.637 3.64,-3.63l2.17,0c-0.027,3.175 -2.635,5.778 -5.81,5.8Z" style="fill-rule:nonzero;"/><path d="M54.23,76.11l-8.46,0l0,-21.35l-8.49,-5.24l25.44,0l-8.49,5.24l0,21.35Zm-6.23,-2.21l4,0l0,-20.37l3,-1.81l-9.9,0l2.9,1.81l0,20.37Z" style="fill-rule:nonzero;"/></svg>