<?xml version="1.0" encoding="UTF-8" standalone="no"?><!DOCTYPE svg PUBLIC "-//W3C//DTD SVG 1.1//EN" "http://www.w3.org/Graphics/SVG/1.1/DTD/svg11.dtd"><svg width="259" height="48" viewBox="0 0 259 48" version="1.1" xmlns="http://www.w3.org/2000/svg" xmlns:xlink="http://www.w3.org/1999/xlink" xml:space="preserve" xmlns:serif="http://www.serif.com/" style="fill-rule:evenodd;clip-rule:evenodd;stroke-linejoin:round;stroke-miterlimit:2;"><g><g><path d="M14.174,27.745l-9.047,0l-0,12.892l-5.127,-0l-0,-34.68l14.475,-0c6.409,-0 11.159,3.695 11.159,10.856c0,7.162 -4.75,10.932 -11.46,10.932m0.226,-16.812l-9.273,-0l-0,11.912l9.273,-0c3.997,-0 5.957,-2.262 5.957,-5.955c0,-3.846 -2.337,-5.957 -5.957,-5.957" style="fill:#006167;fill-rule:nonzero;"/><path d="M48.101,41.241c-8.595,-0 -13.042,-5.579 -13.042,-15.078l-0,-20.132l5.202,0l-0,19.981c-0,6.558 2.714,10.027 7.915,10.027c5.428,-0 7.992,-3.394 7.992,-9.726l-0,-20.282l5.203,0l0,20.207c0.075,9.65 -4.674,15.003 -13.27,15.003" style="fill:#006167;fill-rule:nonzero;"/><path d="M91.829,26.539l7.087,14.174l-5.957,0l-6.859,-13.722l-7.918,0l0,13.722l-5.126,0l-0,-34.682l15.231,0c6.03,0 11.157,3.243 11.157,10.33c-0,5.504 -2.94,8.973 -7.615,10.178m-3.542,-15.606l-10.105,0l0,11.158l10.105,-0c3.467,-0 5.879,-1.81 5.879,-5.579c0,-3.62 -2.337,-5.579 -5.879,-5.579" style="fill:#006167;fill-rule:nonzero;"/><path d="M147.469,7.841c-2.412,-2.412 -5.277,-3.618 -8.671,-3.618c-3.392,0 -6.331,1.206 -8.744,3.618c-2.488,2.488 -3.695,5.956 -3.469,10.329c-4.373,-0.151 -7.841,0.981 -10.328,3.469c-2.413,2.412 -3.62,5.352 -3.62,8.744c-0,3.394 1.207,6.334 3.62,8.671l8.746,8.747l3.618,-3.62l-8.745,-8.745c-1.358,-1.433 -2.111,-3.092 -2.111,-5.053c0,-2.034 0.678,-3.693 2.111,-5.126c1.356,-1.356 3.091,-2.111 5.051,-2.111c2.035,-0 3.694,0.679 5.052,2.111l8.744,8.746l3.62,-3.62l-8.746,-8.744c-1.357,-1.433 -2.112,-3.092 -2.112,-5.051c0,-2.036 0.68,-3.695 2.112,-5.127c1.433,-1.433 3.015,-2.111 5.051,-2.111c2.036,-0 3.695,0.678 5.051,2.111l8.746,8.745l3.62,-3.618l-8.596,-8.747Z" style="fill:#006167;fill-rule:nonzero;"/><path d="M161.87,8.746l-8.747,-8.746l-3.618,3.62l8.746,8.744c1.357,1.358 2.11,3.093 2.11,5.053c0,2.034 -0.678,3.693 -2.11,5.127c-1.357,1.356 -3.092,2.111 -5.052,2.111c-2.035,-0 -3.694,-0.68 -5.052,-2.111l-8.744,-8.747l-3.62,3.62l8.746,8.745c1.357,1.357 2.112,3.092 2.112,5.051c-0,2.036 -0.68,3.695 -2.112,5.128c-1.433,1.432 -3.015,2.11 -5.051,2.11c-2.036,-0 -3.695,-0.678 -5.051,-2.11l-8.822,-8.746l-3.619,3.618l8.746,8.746c2.413,2.413 5.277,3.62 8.671,3.62c3.392,-0 6.332,-1.207 8.744,-3.62c2.488,-2.488 3.695,-5.955 3.469,-10.328c4.374,0.15 7.841,-0.981 10.329,-3.469c2.412,-2.413 3.62,-5.353 3.62,-8.745c-0.077,-3.394 -1.283,-6.258 -3.695,-8.671" style="fill:#0b77b9;fill-rule:nonzero;"/><path d="M199.189,40.638l-2.94,-8.218l-13.872,0l-2.865,8.218l-5.428,-0l12.44,-34.681l5.503,0l12.59,34.681l-5.428,-0Zm-7.313,-20.809c-0.829,-2.488 -2.262,-6.483 -2.638,-7.992c-0.377,1.509 -1.66,5.428 -2.488,7.992l-2.79,7.917l10.706,0l-2.79,-7.917Z" style="fill:#0b77b9;fill-rule:nonzero;"/><rect x="214.795" y="5.956" width="5.202" height="34.68" style="fill:#0b77b9;"/><path d="M250.909,26.539l7.087,14.174l-5.957,0l-6.859,-13.722l-7.918,0l0,13.722l-5.126,0l-0,-34.682l15.23,0c6.031,0 11.158,3.243 11.158,10.33c-0,5.504 -2.94,8.973 -7.615,10.178m-3.543,-15.606l-10.104,0l0,11.158l10.104,-0c3.468,-0 5.88,-1.81 5.88,-5.579c0,-3.62 -2.337,-5.579 -5.88,-5.579" style="fill:#0b77b9;fill-rule:nonzero;"/></g></g></svg>