<?xml version="1.0" encoding="UTF-8" standalone="no"?><!DOCTYPE svg PUBLIC "-//W3C//DTD SVG 1.1//EN" "http://www.w3.org/Graphics/SVG/1.1/DTD/svg11.dtd"><svg width="100%" height="100%" viewBox="0 0 100 100" version="1.1" xmlns="http://www.w3.org/2000/svg" xmlns:xlink="http://www.w3.org/1999/xlink" xml:space="preserve" xmlns:serif="http://www.serif.com/" style="fill-rule:evenodd;clip-rule:evenodd;stroke-linejoin:round;stroke-miterlimit:2;"><path d="M50.733,65.506l-30.589,-0c-0.528,-0 -0.963,-0.435 -0.963,-0.964l-0,-30.16c-0,-0.528 0.435,-0.963 0.963,-0.963l4.512,0c0.529,0 0.963,0.435 0.963,0.963c0,0.529 -0.434,0.964 -0.963,0.964l-3.549,-0l0,28.233l29.626,0c0.528,0 0.963,0.435 0.963,0.963c-0,0.529 -0.435,0.964 -0.963,0.964Z" style="fill-rule:nonzero;"/><path d="M33.228,61.73l-9.058,0c-0.529,0 -0.963,-0.435 -0.963,-0.963c-0,-0.528 0.434,-0.963 0.963,-0.963l9.058,-0c0.528,-0 0.963,0.435 0.963,0.963c0,0.528 -0.435,0.963 -0.963,0.963Z" style="fill-rule:nonzero;"/><path d="M50.737,59.799c-0.083,-0.001 -0.165,-0.012 -0.245,-0.034l-26.77,-7.006c-0.511,-0.134 -0.822,-0.664 -0.689,-1.175l7.32,-27.969c0.133,-0.511 0.664,-0.822 1.175,-0.689l48.575,12.713c0.511,0.134 0.822,0.664 0.689,1.175l-4.103,15.67c-0.122,0.407 -0.499,0.687 -0.923,0.687c-0.528,0 -0.963,-0.435 -0.963,-0.963c-0,-0.069 0.007,-0.138 0.022,-0.205l3.852,-14.741l-46.711,-12.227l-6.828,26.106l25.826,6.761c0.418,0.113 0.711,0.496 0.711,0.929c-0,0.524 -0.428,0.957 -0.952,0.963l0.014,0.005Z" style="fill-rule:nonzero;"/><path d="M39.686,56.905c-0.001,-0 -0.002,-0 -0.003,-0c-0.529,-0 -0.963,-0.435 -0.963,-0.963c-0,-0.083 0.01,-0.166 0.031,-0.246l7.315,-27.93c0.122,-0.407 0.499,-0.687 0.923,-0.687c0.528,-0 0.963,0.435 0.963,0.963c0,0.069 -0.007,0.138 -0.022,0.205l-7.315,27.931c-0.107,0.424 -0.491,0.725 -0.929,0.727Z" style="fill-rule:nonzero;"/><path d="M68.228,41.938c-0.001,0 -0.002,0 -0.003,0c-0.529,0 -0.963,-0.435 -0.963,-0.963c-0,-0.083 0.01,-0.165 0.031,-0.246l1.826,-6.982c0.121,-0.407 0.498,-0.687 0.922,-0.687c0.529,-0 0.963,0.435 0.963,0.963c0,0.069 -0.007,0.138 -0.022,0.205l-1.825,6.983c-0.107,0.425 -0.491,0.725 -0.929,0.727Z" style="fill-rule:nonzero;"/><path d="M42.536,31.377c-0.083,-0 -0.165,-0.011 -0.245,-0.033l-3.795,-0.992c-0.441,-0.096 -0.758,-0.49 -0.758,-0.941c0,-0.529 0.435,-0.963 0.964,-0.963c0.093,-0 0.186,0.013 0.276,0.04l3.799,0.997c0.427,0.107 0.729,0.494 0.729,0.934c0,0.529 -0.434,0.963 -0.963,0.963c-0.002,0 -0.004,0 -0.007,0l0,-0.005Z" style="fill-rule:nonzero;"/><path d="M36.999,52.465c-0.083,-0.001 -0.166,-0.012 -0.246,-0.034l-8.384,-2.196c-0.441,-0.096 -0.758,-0.489 -0.758,-0.941c0,-0.528 0.435,-0.963 0.963,-0.963c0.094,0 0.187,0.014 0.277,0.041l8.403,2.2c0.427,0.107 0.729,0.494 0.729,0.935c-0,0.528 -0.435,0.963 -0.963,0.963c-0.003,-0 -0.005,-0 -0.007,-0l-0.014,-0.005Z" style="fill-rule:nonzero;"/><path d="M54.638,73.177c-0.528,-0 -0.963,-0.435 -0.963,-0.963l-0,-24.232c-0,-0.529 0.435,-0.963 0.963,-0.963c0.528,-0 0.963,0.434 0.963,0.963l0,24.232c0,0.528 -0.435,0.963 -0.963,0.963Z" style="fill-rule:nonzero;"/><path d="M72.518,73.177c-0.528,-0 -0.963,-0.435 -0.963,-0.963l0,-24.232c0,-0.529 0.435,-0.963 0.963,-0.963c0.529,-0 0.963,0.434 0.963,0.963l0,24.232c0,0.528 -0.434,0.963 -0.963,0.963Z" style="fill-rule:nonzero;"/><path d="M63.576,52.465c-5.649,-0 -9.906,-2.1 -9.906,-4.888c0,-2.788 4.257,-4.888 9.906,-4.888c5.648,0 9.905,2.1 9.905,4.903c0,2.802 -4.257,4.873 -9.905,4.873Zm-0,-7.849c-4.869,-0 -7.98,1.752 -7.98,2.961c0,1.209 3.106,2.962 7.98,2.962c4.873,-0 7.979,-1.753 7.979,-2.962c0,-1.209 -3.106,-2.961 -7.979,-2.961Z" style="fill-rule:nonzero;"/><path d="M63.576,77.102c-5.649,-0 -9.906,-2.1 -9.906,-4.888c0,-0.529 0.435,-0.963 0.963,-0.963c0.529,-0 0.963,0.434 0.963,0.963c0,1.208 3.106,2.961 7.98,2.961c4.873,0 7.979,-1.753 7.979,-2.961c0,-0.529 0.435,-0.963 0.963,-0.963c0.529,-0 0.963,0.434 0.963,0.963c0,2.788 -4.257,4.888 -9.905,4.888Z" style="fill-rule:nonzero;"/><path d="M63.576,57.343c-5.649,0 -9.906,-2.099 -9.906,-4.888c0,-0.528 0.435,-0.963 0.963,-0.963c0.529,0 0.963,0.435 0.963,0.963c0,1.209 3.106,2.962 7.98,2.962c4.873,-0 7.979,-1.753 7.979,-2.962c0,-0.528 0.435,-0.963 0.963,-0.963c0.529,0 0.963,0.435 0.963,0.963c0,2.789 -4.257,4.888 -9.905,4.888Z" style="fill-rule:nonzero;"/><path d="M63.576,72.151c-5.649,0 -9.906,-2.099 -9.906,-4.888c0,-0.528 0.435,-0.963 0.963,-0.963c0.529,0 0.963,0.435 0.963,0.963c0,1.209 3.106,2.962 7.98,2.962c4.873,-0 7.979,-1.753 7.979,-2.962c0,-0.528 0.435,-0.963 0.963,-0.963c0.529,0 0.963,0.435 0.963,0.963c0,2.798 -4.257,4.888 -9.905,4.888Z" style="fill-rule:nonzero;"/><path d="M63.576,67.225c-5.649,-0 -9.906,-2.1 -9.906,-4.888c0,-0.528 0.435,-0.963 0.963,-0.963c0.529,-0 0.963,0.435 0.963,0.963c0,1.209 3.106,2.962 7.98,2.962c4.873,-0 7.979,-1.753 7.979,-2.962c0,-0.528 0.435,-0.963 0.963,-0.963c0.529,-0 0.963,0.435 0.963,0.963c0,2.783 -4.257,4.888 -9.905,4.888Z" style="fill-rule:nonzero;"/><path d="M63.576,62.284c-5.649,-0 -9.906,-2.1 -9.906,-4.888c0,-0.528 0.435,-0.963 0.963,-0.963c0.529,0 0.963,0.435 0.963,0.963c0,1.209 3.106,2.962 7.98,2.962c4.873,-0 7.979,-1.753 7.979,-2.962c0,-0.528 0.435,-0.963 0.963,-0.963c0.529,0 0.963,0.435 0.963,0.963c0,2.788 -4.257,4.888 -9.905,4.888Z" style="fill-rule:nonzero;"/></svg>