<?xml version="1.0" encoding="UTF-8" standalone="no"?><!DOCTYPE svg PUBLIC "-//W3C//DTD SVG 1.1//EN" "http://www.w3.org/Graphics/SVG/1.1/DTD/svg11.dtd"><svg width="100%" height="100%" viewBox="0 0 100 100" version="1.1" xmlns="http://www.w3.org/2000/svg" xmlns:xlink="http://www.w3.org/1999/xlink" xml:space="preserve" xmlns:serif="http://www.serif.com/" style="fill-rule:evenodd;clip-rule:evenodd;stroke-linejoin:round;stroke-miterlimit:2;"><path d="M65.905,2.148l-31.81,0c-5.612,0.017 -10.225,4.63 -10.242,10.243l0,75.218c0.017,5.613 4.63,10.226 10.242,10.243l31.81,-0c5.612,-0.017 10.225,-4.63 10.242,-10.243l-0,-75.218c-0.017,-5.613 -4.63,-10.226 -10.242,-10.243Zm7.117,85.461c-0.005,3.903 -3.215,7.113 -7.117,7.118l-31.81,-0c-3.902,-0.005 -7.112,-3.215 -7.117,-7.118l0,-75.218c0.005,-3.903 3.215,-7.113 7.117,-7.118l31.81,0c3.902,0.005 7.112,3.215 7.117,7.118l-0,75.218Z" style="fill-rule:nonzero;"/><path d="M50,9.066c-0,-0 -0,-0 -0,-0c-1.466,-0 -2.673,1.207 -2.673,2.673c-0,1.466 1.207,2.673 2.673,2.673c1.466,-0 2.673,-1.207 2.673,-2.673c-0.002,-1.466 -1.207,-2.671 -2.673,-2.673Zm0,3.125c-0.248,-0 -0.452,-0.204 -0.452,-0.452c0,-0.248 0.204,-0.452 0.452,-0.452c0.248,-0 0.452,0.204 0.452,0.452c0,-0 0,-0 0,-0c-0,0.248 -0.204,0.452 -0.452,0.452Z" style="fill-rule:nonzero;"/></svg>